<?xml version="1.0" encoding="UTF-8"?>
<svg id="Layer_1" data-name="Layer 1" xmlns="http://www.w3.org/2000/svg" viewBox="0 0 938.54 193.24">
  <defs>
    <style>
      .cls-1 {
        letter-spacing: -.04em;
      }

      .cls-1, .cls-2, .cls-3, .cls-4, .cls-5, .cls-6, .cls-7, .cls-8 {
        stroke-miterlimit: 10;
      }

      .cls-1, .cls-2, .cls-3, .cls-5, .cls-7, .cls-8 {
        fill: ;
      }

      .cls-1, .cls-2, .cls-5, .cls-7, .cls-8 {
        font-family: PTSans-Regular, 'PT Sans';
        font-size: 159px;
        isolation: isolate;
        stroke: #fff;
      }

      .cls-2 {
        letter-spacing: -.07em;
      }

      .cls-3, .cls-4, .cls-6 {
        stroke-width: 2px;
      }

      .cls-3, .cls-6 {
        stroke:  #808080;
      }

      .cls-4 {
        stroke: #bda587;
      }

      .cls-4, .cls-9 {
        fill:  #808080;
      }

      .cls-6 {
        fill: none;
      }

      .cls-7 {
        letter-spacing: -.11em;
      }

      .cls-8 {
        letter-spacing: -.03em;
      }

      .cls-9, .cls-10 {
        stroke-width: 0px;
      }

      .cls-10 {
        fill: #333333;
      }
    </style>
  </defs>
  <path class="cls-6" d="M80.06,80.13c-.26,23.44-1,52.31-1.26,75.74l15.51,1.87-93.83.41,19.64-1.96c-.12-23.28.05-57.75-.07-81.03-6.23,0-7.37-4.93-12.92-2.56,9.64-7.28,11.71-6.17,17.22-10.19,3.03-2.21,5.94-4.32,6.94-5.04,6.42-4.65,11.75-8.45,16.63-11.93,15.02-10.72,22.53-16.08,27.34-19.33,3.74-2.52,7.16-4.77,12.26-8.48,4.86-3.55,6.02-4.63,10.84-8.01,1.23-.86,3.97-2.78,8.01-5.66,1.1-.79,2.01-1.44,2.61-1.87l6.41,4.22,23.86,18.49,6.92.28v-3.53l35.01-.42,1.27-.14-.85,31.76,28.89,16.96c-5.44-1.89,2.05,2.56-8.18,4.63.75,19.87.17,43.34.18,62.46l-.25,18.7,6.75.93,5.88.46-80.3.27,11.19-2.19-.06-4.19c-.39-24.21-.15-48.51-.53-72.72"/>
  <path class="cls-10" d="M76.1,76.23l-56.93,1.08,6.61-.1,60.58-.94,73.34-1.14,4.49-.07,59.14-1.08s-24.66-1.14-24.63-1.14l17.26,1.49,4.95-.48-40.31-23.18.85-31.76-36.28.56v3.53l-6.92-.28L107.98,0,.48,77.3h6.05"/>
  <polyline class="cls-6" points="202.48 78.07 145.15 78.07 138.18 74.45"/>
  <polyline class="cls-3" points="77.73 80.13 79.15 80.13 21.07 80.13"/>
  <line class="cls-6" x1="86.36" y1="76.26" x2="79.15" y2="80.13"/>
  <polyline class="cls-9" points="21.07 81.41 79.15 81.41 77.85 155.7 21.07 155.7"/>
  <polyline class="cls-4" points="146.93 80.13 200.6 80.13 199.36 154.89 146.93 154.89"/>
  <text class="cls-7" transform="translate(223.34 153.79)"><tspan x="0" y="0">C</tspan></text>
  <text class="cls-7" transform="translate(223.34 153.79)"><tspan x="0" y="0">C</tspan></text>
  <text class="cls-8" transform="translate(303.48 153.79)"><tspan x="0" y="0">o</tspan></text>
  <text class="cls-8" transform="translate(303.48 153.79)"><tspan x="0" y="0">o</tspan></text>
  <text class="cls-5" transform="translate(383.61 153.79)"><tspan x="0" y="0">r</tspan></text>
  <text class="cls-5" transform="translate(383.61 153.79)"><tspan x="0" y="0">r</tspan></text>
  <text class="cls-1" transform="translate(437.35 153.79)"><tspan x="0" y="0">t</tspan></text>
  <text class="cls-1" transform="translate(437.35 153.79)"><tspan x="0" y="0">t</tspan></text>
  <text class="cls-8" transform="translate(484.42 153.79)"><tspan x="0" y="0">es </tspan></text>
  <text class="cls-8" transform="translate(484.42 153.79)"><tspan x="0" y="0">es </tspan></text>
  <text class="cls-2" transform="translate(659.32 153.79)"><tspan x="0" y="0">c</tspan></text>
  <text class="cls-2" transform="translate(659.32 153.79)"><tspan x="0" y="0">c</tspan></text>
  <text class="cls-8" transform="translate(722.28 153.79)"><tspan x="0" y="0">orp</tspan></text>
  <text class="cls-8" transform="translate(722.28 153.79)"><tspan x="0" y="0">orp</tspan></text>
</svg>